<?xml version="1.0" encoding="utf-8"?>
<svg viewBox="-44 -18 435.825 435.825" xmlns="http://www.w3.org/2000/svg">
  <path id="path3166" d="m20.54626,99.38148l12.68227,-13.339c7.42689,-7.42689 19.93286,-4.85059 19.93286,-4.85059l37.11206,5.07802l18.79623,-18.39197c9.90254,-9.7257 18.84631,5.15417 14.95604,10.28227l-9.65059,11.21703l39.96692,7.40238l13.56643,-15.81515c14.50014,-17.32943 25.28838,-1.71719 18.74563,7.47802l-8.76643,11.0908l60.05158,7.83168c51.63463,-49.6895 72.71458,-70.30106 86.30026,-58.05583c13.67326,12.32418 -10.51335,36.8888 -57.55038,85.34047l8.539,61.87048l12.58108,-10.48415c7.42689,-6.18908 20.61411,3.74006 6.99812,16.64871l-17.30543,16.32008l7.30118,40.4974l10.81277,-8.31158c9.54887,-7.60373 21.14459,2.45163 8.23594,16.24445l-17.1792,17.30544c-0.70732,0.5305 5.60851,35.52058 5.60851,35.52058c3.89028,17.15261 -5.78535,23.4194 -5.78535,23.4194l-11.79811,10.28227l-44.8175,-126.5958c-3.71345,-11.14035 -13.12497,-23.23819 -28.85109,-21.80237c-8.31105,0.88416 -29.30593,15.05723 -32.13523,18.41702l-48.60712,46.7376c-1.23782,0.88416 7.47802,60.75889 7.47802,60.75889c0,1.76831 -15.41089,21.9792 -15.41089,21.9792l-30.79622,-54.82175l-15.20851,7.07375l8.89266,-13.84445l-55.45345,-31.30169l20.79198,-15.2085c9.90254,2.2988 61.81988,8.13474 62.88086,7.60425c0,0 42.27751,-41.92785 44.69127,-44.46384c13.96965,-14.67697 18.67001,-20.16081 20.79198,-27.41088c2.12371,-7.25603 -1.4941,-17.88936 -23.4194,-31.35227c-30.23809,-18.56726 -124.97877,-50.35039 -124.97877,-50.35039z" style="stroke-linecap: round; stroke-miterlimit: 11; stroke-dashoffset: -6px; stroke: rgb(0, 0, 0); stroke-width: 5px; fill: rgb(11, 94, 94);" transform="matrix(0.707107, 0.707107, -0.707107, 0.707107, 192.296779, -64.421486)"/>
</svg>